#!OML:ASF H:\Male1\Project 1\Capture day 1\Session 1\Male1.ASF
:FULLY-SPECIFIED
:DEGREES
342
root 25.6755 15.2879 2.20893 -40.099 84.2565 -38.3811
lowerback 13.4389 2.40824 0.573101
upperback 8.223 3.67742 -1.60448
thorax 1.27097 2.09224 -2.42615
lowerneck -5.38912 10.4176 15.2191
upperneck 15.8242 15.2066 -13.685
head 7.98726 7.32476 -5.46697
rclavicle 2.90226e-014 -9.54166e-015
rhumerus -52.1576 6.78209 -85.8856
rradius 87.4479
rwrist -29.9909
rhand -24.2145 5.35453
rfingers 7.12502
rthumb 2.27017 -24.6131
lclavicle 2.90226e-014 -9.54166e-015
lhumerus -30.385 -3.38393 79.2799
lradius 36.7048
lwrist 5.76754
lhand -21.6546 13.7124
lfingers 7.12502
lthumb 4.74224 43.6394
rfemur -14.3681 10.2781 16.9598
rtibia 35.9834
rfoot -23.1025 -24.7849
rtoes -30.506
lfemur -10.8497 -13.3906 -18.1767
ltibia 34.5164
lfoot -21.1454 13.2916
ltoes -12.2544
343
root 25.6812 15.2233 2.29224 -42.6133 84.4947 -40.9149
lowerback 13.2903 2.15946 0.167138
upperback 8.03865 3.28723 -1.5627
thorax 1.1104 1.87107 -2.10849
lowerneck -4.87089 10.3308 15.4577
upperneck 15.8384 15.0829 -13.4178
head 7.87668 7.3213 -5.45783
rclavicle 1.07344e-014 -7.95139e-016
rhumerus -52.5205 7.0042 -86.1697
rradius 86.7391
rwrist -30.184
rhand -23.9573 5.54448
rfingers 7.12502
rthumb 2.51859 -24.4204
lclavicle 1.07344e-014 -7.95139e-016
lhumerus -30.8243 -2.60028 78.3131
lradius 34.0568
lwrist 4.19425
lhand -21.4378 13.3905
lfingers 7.12502
lthumb 4.95163 43.3127
rfemur -12.7177 11.8024 17.2153
rtibia 32.9864
rfoot -25.5149 -25.8676
rtoes -25.2325
lfemur -11.652 -12.7632 -17.684
ltibia 35.7564
lfoot -21.5563 12.5961
ltoes -13.4356
344
root 25.6818 15.1738 2.37701 -43.5492 84.6026 -41.7948
lowerback 13.2747 2.28197 0.11568
upperback 8.07604 3.44833 -1.5341
thorax 1.15982 1.95153 -2.06664
lowerneck -4.7308 9.93095 15.5563
upperneck 15.6221 14.4683 -13.2755
head 7.68028 7.0519 -5.5177
rclavicle 1.15295e-014 -7.95139e-016
rhumerus -52.2809 6.00878 -85.9145
rradius 85.6059
rwrist -30.0792
rhand -23.9263 5.3705
rfingers 7.12502
rthumb 2.54853 -24.594
lclavicle 1.15295e-014 -7.95139e-016
lhumerus -30.2604 -2.23948 77.6852
lradius 31.1495
lwrist 1.40302
lhand -20.8646 13.0993
lfingers 7.12502
lthumb 5.5051 43.0078
rfemur -11.3163 14.2925 17.5645
rtibia 30.8568
rfoot -22.5666 -27.4704
rtoes -21.4336
lfemur -12.1217 -12.1594 -17.2601
ltibia 36.5471
lfoot -21.8217 12.0257
ltoes -14.2745
345
root 25.6713 15.1397 2.44394 -39.5063 84.9769 -37.9356
lowerback 13.0497 2.37985 -0.179178
upperback 8.05873 3.54771 -1.72494
thorax 1.26112 1.99551 -2.09995
lowerneck -4.93123 9.56391 15.2319
upperneck 15.6962 13.8682 -12.7772
head 7.58425 6.77271 -5.37079
rclavicle -1.70955e-014 4.77083e-015
rhumerus -51.7569 5.24671 -85.8319
rradius 83.7944
rwrist -29.9188
rhand -24.1803 5.09254
rfingers 7.12502
rthumb 2.30325 -24.8748
lclavicle -1.70955e-014 4.77083e-015
lhumerus -29.4035 -1.15541 76.8306
lradius 27.964
lwrist -2.29443
lhand -20.2836 12.3817
lfingers 7.12502
lthumb 6.06599 42.2749
rfemur -10.5096 14.7293 17.2191
rtibia 29.264
rfoot -22.35 -30.3709
rtoes -32.02
lfemur -12.8456 -11.8923 -17.4431
ltibia 37.3174
lfoot -21.9999 11.7736
ltoes -14.8873
346
root 25.6485 15.1489 2.49242 -23.1066 85.0933 -21.1683
lowerback 13.5981 2.30922 -1.46459
upperback 7.8589 3.29702 -2.35828
thorax 0.722013 1.84028 -2.04653
lowerneck -3.30223 9.4485 16.5933
upperneck 15.3344 13.9555 -13.6559
head 7.35717 6.9094 -5.94737
rclavicle 2.22639e-014 1.74931e-014
rhumerus -51.2661 5.63719 -86.7094
rradius 81.2404
rwrist -29.9213
rhand -24.3944 5.00461
rfingers 7.12502
rthumb 2.09647 -24.9648
lclavicle 2.22639e-014 1.74931e-014
lhumerus -29.3349 2.37511 74.6515
lradius 24.8881
lwrist -7.27896
lhand -19.467 11.6062
lfingers 7.12502
lthumb 6.85439 41.4752
rfemur -10.1274 15.074 16.0184
rtibia 28.4429
rfoot -20.8009 -30.7788
rtoes -33.3263
lfemur -12.5883 -11.8666 -18.8067
ltibia 37.5854
lfoot -21.9814 12.3727
ltoes -15.15
347
root 25.6507 15.166 2.51983 -39.3754 83.1963 -37.5675
lowerback 13.6574 2.63683 2.10488
upperback 8.08306 4.13953 -1.90084
thorax 1.16606 2.38281 -3.66445
lowerneck -5.77567 9.23325 15.0771
upperneck 17.2237 13.3976 -12.2037
head 8.1113 6.55231 -5.18287
rclavicle -4.37326e-015 7.95139e-016
rhumerus -49.7981 3.71071 -85.9476
rradius 78.3563
rwrist -30.3939
rhand -24.3888 4.79251
rfingers 7.12502
rthumb 2.10185 -25.1769
lclavicle -4.37326e-015 7.95139e-016
lhumerus -27.3854 6.77707 73.2484
lradius 21.3933
lwrist -14.8577
lhand -18.5253 10.8279
lfingers 7.12502
lthumb 7.76332 40.6654
rfemur -10.0229 15.2039 18.7242
rtibia 27.9383
rfoot -20.7946 -28.4416
rtoes -30.7868
lfemur -12.5191 -12.1156 -16.17
ltibia 37.7766
lfoot -22.2083 13.1663
ltoes -14.8098
348
root 25.6524 15.1984 2.56333 -40.6629 81.9108 -39.1069
lowerback 13.2559 2.39962 2.71948
upperback 7.89225 3.85919 -1.77946
thorax 1.18909 2.24589 -3.83304
lowerneck -4.92352 9.48684 15.6895
upperneck 17.2487 13.8954 -12.556
head 8.11351 6.83734 -5.37093
rclavicle -1.19271e-014 -9.54166e-015
rhumerus -48.6283 4.68562 -86.5126
rradius 75.1134
rwrist -31.0761
rhand -24.2673 3.08462
rfingers 7.12502
rthumb 2.21919 -26.8836
lclavicle -1.19271e-014 -9.54166e-015
lhumerus -28.0536 15.3418 69.58
lradius 18.9212
lwrist -23.293
lhand -18.1425 10.2667
lfingers 7.12502
lthumb 8.13282 40.0902
rfemur -10.2438 14.7527 19.7847
rtibia 27.6195
rfoot -20.4283 -27.7116
rtoes -32.5552
lfemur -12.2283 -12.6148 -15.0484
ltibia 37.4265
lfoot -22.5272 14.3324
ltoes -13.9904
